<svg width="250" height="40" viewBox="0 0 250 40" fill="none" xmlns="http://www.w3.org/2000/svg">
<g clip-path="url(#clip0_234_42)">
<path d="M62.4996 0.104492H55.4602C55.4602 0.104492 55.4602 20.1703 55.4602 25.1045C55.4602 29.9729 52.8944 32.3414 47.8286 32.3414C42.7627 32.3414 40.3286 29.9729 40.3286 25.1045C40.3286 20.1703 40.3286 0.104492 40.3286 0.104492H33.2891C33.2891 0.104492 33.2891 20.1703 33.2891 25.1045C33.2891 33.9861 38.8812 39.4466 47.8944 39.4466C56.7759 39.4466 62.5654 33.8545 62.5654 25.1045C62.4996 20.1703 62.4996 0.104492 62.4996 0.104492Z" fill="#003B5C"/>
<path d="M13.8158 0.104492L0 38.3939H7.03948L9.60523 31.3545H23.6842L26.25 38.3939H33.2894L19.4737 0.104492H13.8158ZM12.1052 24.315L16.579 11.8808L21.0527 24.315H12.1052Z" fill="#003B5C"/>
<path d="M76.3158 0.104492L62.5 38.3939H69.5394L72.1052 31.3545H86.1842L88.75 38.3939H95.7899L81.9737 0.104492H76.3158ZM74.6052 24.315L79.0789 11.8808L83.5527 24.315H74.6052Z" fill="#003B5C"/>
<path d="M105.065 13.7227L104.276 13.657C103.815 13.5912 103.815 13.4596 103.881 13.0648C104.144 12.1438 104.408 11.2886 104.802 10.2359H108.158C108.355 10.7623 108.881 12.2754 109.144 12.9991C109.276 13.3938 109.211 13.5912 108.75 13.657L108.026 13.7227V14.1833H111.973V13.7227C111.119 13.657 110.986 13.5912 110.658 12.8017C109.869 10.5649 108.355 6.22278 107.5 3.78857H106.315C105.329 6.68331 104.211 9.90696 103.158 12.6702C102.829 13.4596 102.697 13.657 101.776 13.7227V14.1833H105.065V13.7227ZM106.447 5.36753C106.842 6.35436 107.631 8.59121 107.961 9.70962H105C105.461 8.19647 105.986 6.61753 106.447 5.36753Z" fill="#003B5C"/>
<path d="M117.763 13.7227V14.1832H121.381V13.7227C120.329 13.6569 120.263 13.6569 120.263 12.8674V9.44635C120.263 9.05166 120.263 8.85429 120.394 8.65691C120.592 8.06481 121.25 7.60428 122.039 7.60428C122.96 7.60428 123.552 8.19639 123.552 9.44635V12.9332C123.552 13.7227 123.487 13.7227 122.434 13.7885V14.249H126.119V13.7227C125.065 13.6569 125 13.5911 125 12.8674V9.11745C125 7.60428 124.21 6.74902 122.763 6.74902C121.513 6.74902 120.658 7.60428 120.131 7.86744C119.737 7.20955 119.21 6.74902 118.158 6.74902C117.039 6.74902 116.119 7.4727 115.526 7.86744L115.394 6.74902L113.026 7.14376V7.60428L113.619 7.67008C114.013 7.73587 114.079 7.80166 114.079 8.32797V12.8674C114.079 13.6569 114.013 13.6569 112.96 13.7227V14.1832H116.644V13.7227C115.658 13.6569 115.526 13.5911 115.526 12.8674V9.44635C115.526 9.11744 115.526 8.92008 115.658 8.65691C115.921 8.06481 116.579 7.53849 117.434 7.53849C118.684 7.53849 118.815 8.45955 118.815 9.38057V12.8674C118.881 13.6569 118.815 13.6569 117.763 13.7227Z" fill="#003B5C"/>
<path d="M133.816 12.3411L133.355 12.078C132.894 12.9332 132.369 13.6569 131.25 13.6569C129.408 13.6569 129.013 11.9463 129.079 10.3674H133.355C133.684 10.3674 133.948 10.2359 133.948 9.77534C133.948 8.85428 133.619 6.74902 130.921 6.74902C128.619 6.74902 127.5 8.39376 127.5 10.6306C127.5 12.999 128.421 14.4463 130.987 14.4463C132.566 14.4463 133.421 13.5253 133.816 12.3411ZM130.79 7.27534C132.171 7.27534 132.302 8.65691 132.302 9.24901C132.302 9.51221 132.237 9.70956 131.777 9.70956H129.013C129.013 9.11745 129.277 7.27534 130.79 7.27534Z" fill="#003B5C"/>
<path d="M139.211 13.7227C137.895 13.6569 137.829 13.5911 137.829 12.8674V9.44635C137.829 8.32797 138.356 7.93323 138.685 7.93323C138.948 7.93323 139.145 7.99902 139.54 8.32797C139.671 8.39376 139.803 8.39376 139.869 8.39376C140.264 8.39376 140.593 7.93323 140.593 7.4727C140.593 7.14376 140.395 6.74902 139.803 6.74902C139.277 6.74902 138.816 7.14376 137.829 7.99902L137.632 6.74902L135.329 7.14376V7.60428L135.921 7.67008C136.316 7.73587 136.382 7.80166 136.382 8.32797V12.8674C136.382 13.5911 136.316 13.6569 135.264 13.7227V14.1832H139.211V13.7227Z" fill="#003B5C"/>
<path d="M145.593 13.7227C144.539 13.6569 144.474 13.5911 144.474 12.8674V6.81481L144.343 6.74902L141.974 7.14376V7.60428L142.566 7.67008C142.96 7.73587 143.027 7.80166 143.027 8.32797V12.8674C143.027 13.5911 142.961 13.6569 141.908 13.7227V14.1832H145.593V13.7227Z" fill="#003B5C"/>
<path d="M143.75 5.56488C144.277 5.56488 144.671 5.17015 144.671 4.64383C144.671 4.11751 144.342 3.65698 143.75 3.65698C143.158 3.65698 142.829 4.05173 142.829 4.64383C142.829 5.17015 143.224 5.56488 143.75 5.56488Z" fill="#003B5C"/>
<path d="M153.158 12.2755L152.697 12.0781C152.236 13.1307 151.644 13.657 150.592 13.657C148.881 13.657 148.421 11.8807 148.421 10.4333C148.421 8.19652 149.276 7.34125 150.263 7.34125C150.921 7.34125 151.381 7.80179 151.644 8.65704C151.711 8.92021 151.842 9.05178 152.105 9.05178C152.434 9.05178 153.026 8.85441 153.026 8.26231C153.026 7.53862 152.04 6.81494 150.394 6.81494C147.697 6.81494 146.776 8.72283 146.776 10.7623C146.776 13.2623 148.026 14.5123 150.263 14.5123C151.315 14.4466 152.697 13.8544 153.158 12.2755Z" fill="#003B5C"/>
<path d="M155.723 10.499C154.671 10.828 154.342 11.6174 154.342 12.3411C154.342 13.4596 155.065 14.4463 156.513 14.4463C157.434 14.4463 158.223 13.8543 158.75 13.5253C158.947 14.1174 159.21 14.4463 159.736 14.4463C160.328 14.4463 160.986 14.249 161.315 13.9859L161.25 13.5253C161.052 13.5911 160.789 13.5911 160.657 13.5253C160.394 13.4596 160.131 13.1964 160.131 12.2753V8.78849C160.131 7.93323 159.802 6.74902 157.565 6.74902C155.855 6.74902 154.605 7.67007 154.605 8.45955C154.605 8.92007 155.131 9.18323 155.46 9.18323C155.789 9.18323 155.921 8.98588 155.986 8.7227C156.315 7.60428 156.842 7.27534 157.434 7.27534C158.157 7.27534 158.75 7.67007 158.75 8.78849V9.31479C158.289 9.70956 156.842 10.1043 155.723 10.499ZM158.684 12.1438C158.684 13.328 157.763 13.5911 157.236 13.5911C156.315 13.5911 155.855 12.9332 155.855 12.078C155.855 11.3543 156.184 11.0253 156.973 10.6963C157.565 10.499 158.355 10.1701 158.684 9.97268V12.1438Z" fill="#003B5C"/>
<path d="M167.303 13.7227V14.1832H170.987V13.7227C169.935 13.6569 169.869 13.5911 169.869 12.8674V9.11745C169.869 7.60428 169.014 6.74902 167.632 6.74902C166.514 6.74902 165.856 7.27534 164.935 7.86744L164.737 6.74902L162.5 7.14376V7.60428L163.027 7.67008C163.421 7.73587 163.487 7.80166 163.487 8.32797V12.8674C163.487 13.6569 163.421 13.6569 162.369 13.7227V14.1832H166.053V13.7227C165.066 13.6569 164.935 13.6569 164.935 12.8674V9.44635C164.935 9.05166 164.935 8.85429 165.066 8.65691C165.395 8.06481 165.987 7.60428 166.843 7.60428C167.829 7.60428 168.356 8.1306 168.356 9.44635V12.9332C168.421 13.6569 168.356 13.6569 167.303 13.7227Z" fill="#003B5C"/>
<path d="M182.698 4.38081C184.013 4.4466 184.013 4.51238 184.013 5.30186V10.1703C184.013 12.0782 183.619 13.9203 181.316 13.9203C179.145 13.9203 178.75 12.0124 178.75 10.1703V5.30186C178.75 4.44659 178.816 4.4466 180.066 4.38081V3.85449H175.79V4.38081C177.106 4.4466 177.106 4.51238 177.106 5.30186V10.4992C177.106 11.4203 177.237 12.144 177.5 12.6703C178.224 14.1176 179.737 14.4466 181.25 14.4466C182.763 14.4466 184.342 14.1176 185.066 12.6045C185.329 12.0782 185.46 11.2887 185.46 10.3676V5.23607C185.46 4.3808 185.527 4.3808 186.777 4.24923V3.85449H182.566V4.38081H182.698Z" fill="#003B5C"/>
<path d="M194.736 12.8674V9.11745C194.736 7.60428 193.881 6.74902 192.5 6.74902C191.381 6.74902 190.723 7.27534 189.802 7.86744L189.605 6.74902L187.368 7.14376V7.60428L187.894 7.67008C188.289 7.73587 188.355 7.80166 188.355 8.32797V12.8674C188.355 13.6569 188.289 13.6569 187.236 13.7227V14.1832H190.921V13.7227C189.934 13.6569 189.802 13.6569 189.802 12.8674V9.44635C189.802 9.05166 189.802 8.85429 189.934 8.65691C190.263 8.06481 190.855 7.60428 191.71 7.60428C192.697 7.60428 193.223 8.1306 193.223 9.44635V12.9332C193.223 13.7227 193.157 13.7227 192.105 13.7885V14.249H195.789V13.7227C194.802 13.6569 194.736 13.6569 194.736 12.8674Z" fill="#003B5C"/>
<path d="M198.947 5.56488C199.473 5.56488 199.869 5.17015 199.869 4.64383C199.869 4.11751 199.54 3.65698 198.947 3.65698C198.355 3.65698 198.026 4.05173 198.026 4.64383C198.026 5.17015 198.421 5.56488 198.947 5.56488Z" fill="#003B5C"/>
<path d="M199.671 12.8674V6.81481L199.54 6.74902L197.171 7.14376V7.60428L197.763 7.67008C198.158 7.73587 198.223 7.80166 198.223 8.32797V12.8674C198.223 13.5911 198.158 13.6569 197.105 13.7227V14.1832H200.79V13.7227C199.737 13.6569 199.671 13.6569 199.671 12.8674Z" fill="#003B5C"/>
<path d="M206.645 7.40691L207.369 7.4727C207.631 7.4727 207.631 7.67007 207.566 7.86744C207.171 9.24901 206.381 11.4859 205.856 12.8017C205.264 11.1569 204.671 9.51221 204.145 7.86744C204.079 7.60428 204.079 7.4727 204.408 7.40691L205.066 7.34112V6.81481H201.579V7.34112C202.303 7.40691 202.435 7.4727 202.631 7.99902C203.421 10.0385 204.145 12.078 204.869 14.1174H205.987C206.842 11.8148 207.895 8.98589 208.356 7.93323C208.619 7.40691 208.75 7.34112 209.408 7.27534V6.74902H206.579V7.40691H206.645Z" fill="#003B5C"/>
<path d="M215.986 10.3674C216.315 10.3674 216.579 10.2359 216.579 9.77534C216.579 8.85428 216.25 6.74902 213.552 6.74902C211.25 6.74902 210.131 8.39376 210.131 10.6306C210.131 12.999 211.052 14.4463 213.618 14.4463C215.263 14.4463 216.118 13.5253 216.579 12.3411L216.118 12.078C215.657 12.9332 215.131 13.6569 214.013 13.6569C212.171 13.6569 211.776 11.9463 211.842 10.3674H215.986ZM213.486 7.27534C214.868 7.27534 215 8.65691 215 9.24901C215 9.51221 214.934 9.70956 214.473 9.70956H211.71C211.71 9.11745 211.973 7.27534 213.486 7.27534Z" fill="#003B5C"/>
<path d="M222.434 6.74902C221.908 6.74902 221.448 7.14376 220.46 7.99902L220.263 6.74902L217.96 7.14376V7.60428L218.552 7.67008C218.948 7.73587 219.013 7.80166 219.013 8.32797V12.8674C219.013 13.5911 218.948 13.6569 217.895 13.7227V14.1832H221.842V13.7227C220.527 13.6569 220.46 13.5911 220.46 12.8674V9.44635C220.46 8.32797 220.987 7.93323 221.316 7.93323C221.579 7.93323 221.777 7.99902 222.171 8.32797C222.302 8.39376 222.434 8.39376 222.5 8.39376C222.895 8.39376 223.223 7.93323 223.223 7.4727C223.223 7.14376 223.027 6.74902 222.434 6.74902Z" fill="#003B5C"/>
<path d="M227.566 9.84112C226.908 9.64377 225.987 9.24901 225.987 8.45955C225.987 7.67007 226.579 7.27534 227.302 7.27534C228.355 7.27534 228.816 8.1306 228.948 9.05166H229.408V7.20955C228.881 6.8806 228.158 6.74902 227.434 6.74902C225.79 6.74902 224.737 7.53849 224.737 8.92007C224.737 10.3017 225.658 10.6963 226.908 11.1569C227.829 11.4859 228.552 11.8806 228.552 12.6701C228.552 13.3938 227.96 13.8543 227.171 13.8543C225.987 13.8543 225.329 12.999 225.066 11.749H224.605L224.737 13.7227C225.329 14.1832 226.184 14.4463 227.105 14.4463C228.881 14.4463 229.869 13.4596 229.869 12.2096C229.934 10.828 229.144 10.3674 227.566 9.84112Z" fill="#003B5C"/>
<path d="M233.356 5.56488C233.881 5.56488 234.277 5.17015 234.277 4.64383C234.277 4.11751 233.948 3.65698 233.356 3.65698C232.763 3.65698 232.435 4.05173 232.435 4.64383C232.435 5.17015 232.829 5.56488 233.356 5.56488Z" fill="#003B5C"/>
<path d="M234.145 12.8674V6.81481L234.014 6.74902L231.645 7.14376V7.60428L232.237 7.67008C232.631 7.73587 232.698 7.80166 232.698 8.32797V12.8674C232.698 13.5911 232.631 13.6569 231.579 13.7227V14.1832H235.264V13.7227C234.145 13.6569 234.145 13.6569 234.145 12.8674Z" fill="#003B5C"/>
<path d="M239.868 13.5916C239.342 13.5916 238.881 13.2626 238.881 12.1442V7.60473H240.79V6.94684H238.881V5.10474H238.421L237.5 6.94684H236.381V7.60473H237.434V12.7363C237.434 14.2495 238.552 14.4468 239.144 14.4468C239.868 14.4468 240.46 14.1179 240.986 13.7889L240.855 13.3942C240.46 13.5258 240.263 13.5916 239.868 13.5916Z" fill="#003B5C"/>
<path d="M246.974 6.9464V7.40694L247.764 7.47273C248.027 7.47273 248.027 7.67009 247.96 7.93325C247.764 8.8543 247.04 11.0253 246.381 12.7359C245.724 10.9596 245.066 9.38066 244.539 7.86746C244.474 7.6043 244.408 7.40694 244.803 7.40694L245.46 7.34115V6.88062H241.974V7.34115C242.698 7.40694 242.829 7.47273 243.092 8.13062C243.816 9.9069 245.131 13.0648 245.527 14.1174C245.592 14.3807 245.658 14.578 245.658 14.8411C245.527 15.5648 245.131 16.749 244.606 16.749C244.474 16.749 244.342 16.6832 244.079 16.4201C243.948 16.2885 243.816 16.2228 243.619 16.2228C243.289 16.2228 242.96 16.6175 242.96 17.078C242.96 17.4727 243.356 17.8674 244.014 17.8674C244.606 17.8674 245.395 17.6701 246.185 15.499C247.106 12.8675 248.421 9.18323 248.881 8.13062C249.145 7.53851 249.277 7.40694 250 7.34115V6.88062H246.974V6.9464Z" fill="#003B5C"/>
<path d="M108.29 29.7758C108.948 28.7889 109.144 27.6047 109.144 26.881C109.144 24.9731 107.763 24.4468 106.644 24.4468C103.421 24.4468 102.565 27.802 102.565 29.052C102.565 30.4994 103.355 31.552 105.132 31.552C106.644 31.552 107.632 30.7626 108.29 29.7758ZM105.198 31.0258C104.408 31.0258 103.948 30.4994 103.948 29.5783C103.948 28.0652 104.869 24.9073 106.644 24.9073C107.5 24.9073 107.763 25.4994 107.763 26.3547C107.763 27.3415 107.04 31.0258 105.198 31.0258Z" fill="#003B5C"/>
<path d="M115.131 21.0256C114.145 21.0256 113.619 21.4204 113.158 22.0125C112.566 22.7362 112.369 23.6572 112.106 24.5783H110.921L110.79 25.1046H112.04C111.579 27.2756 110.79 31.0914 110.461 32.802C110.264 33.7231 110 34.1177 109.737 34.1177C109.474 34.1177 109.211 33.9862 108.881 33.3941C108.75 33.2625 108.685 33.131 108.553 33.131C108.224 33.131 107.829 33.5256 107.829 33.8546C107.829 34.3152 108.356 34.7099 109.145 34.7099C110.658 34.7099 111.711 33.2625 112.303 30.4993L113.487 25.1046H115.066L115.198 24.5783H113.619L114.013 22.8677C114.277 21.881 114.54 21.4862 114.869 21.4862C115.264 21.4862 115.329 21.6177 115.592 22.2756C115.658 22.4072 115.79 22.5388 115.987 22.5388C116.25 22.5388 116.645 22.2756 116.645 21.881C116.448 21.3546 115.987 21.0256 115.131 21.0256Z" fill="#003B5C"/>
<path d="M126.908 29.9731C126.119 27.7363 124.605 23.3942 123.75 20.96H122.565C121.579 23.8547 120.461 27.0784 119.408 29.8415C119.079 30.631 118.947 30.8284 118.026 30.8942V31.3547H121.315V30.8942L120.526 30.8284C120.065 30.7626 120.065 30.6311 120.132 30.2363C120.394 29.3152 120.658 28.46 121.052 27.4073H124.408C124.605 27.9336 125.132 29.4468 125.394 30.1705C125.526 30.5652 125.461 30.7626 125 30.8284L124.276 30.8942V31.3547H128.223V30.8942C127.302 30.7626 127.171 30.7626 126.908 29.9731ZM121.184 26.8152C121.644 25.3679 122.171 23.789 122.632 22.4731H122.697C123.026 23.46 123.815 25.6968 124.144 26.8152H121.184Z" fill="#003B5C"/>
<path d="M133.75 23.8545C133.223 23.8545 132.763 24.2493 131.777 25.1045L131.579 23.8545L129.277 24.2493V24.7098L129.869 24.7756C130.263 24.8414 130.329 24.9072 130.329 25.4335V29.9729C130.329 30.6966 130.263 30.7624 129.211 30.8282V31.2887H133.158V30.8282C131.842 30.7624 131.777 30.6966 131.777 29.9729V26.5519C131.777 25.4335 132.302 25.0387 132.631 25.0387C132.894 25.0387 133.092 25.1045 133.487 25.4335C133.619 25.4993 133.75 25.4993 133.816 25.4993C134.211 25.4993 134.54 25.0387 134.54 24.5782C134.54 24.2493 134.342 23.8545 133.75 23.8545Z" fill="#003B5C"/>
<path d="M147.96 29.9729V26.2229C147.96 24.7098 147.171 23.8545 145.723 23.8545C144.473 23.8545 143.618 24.7098 143.092 24.9729C142.697 24.315 142.171 23.8545 141.118 23.8545C140 23.8545 139.079 24.5782 138.486 24.9729L138.355 23.8545L135.987 24.2493V24.7098L136.579 24.7756C136.973 24.8414 137.039 24.9072 137.039 25.4335V29.9729C137.039 30.7624 136.973 30.7624 135.921 30.8282V31.2887H139.605V30.8282C138.618 30.7624 138.486 30.6966 138.486 29.9729V26.5519C138.486 26.2229 138.486 26.0256 138.618 25.7624C138.881 25.1704 139.539 24.644 140.394 24.644C141.644 24.644 141.776 25.565 141.776 26.4861V29.9729C141.776 30.7624 141.71 30.7624 140.658 30.8282V31.2887H144.276V30.8282C143.223 30.7624 143.158 30.7624 143.158 29.9729V26.5519C143.158 26.1572 143.158 25.9598 143.289 25.7624C143.487 25.1704 144.144 24.7098 144.934 24.7098C145.855 24.7098 146.447 25.3019 146.447 26.5519V30.0387C146.447 30.8283 146.381 30.8282 145.329 30.894V31.3545H149.013V30.894C148.026 30.7624 147.96 30.7624 147.96 29.9729Z" fill="#003B5C"/>
<path d="M156.185 27.4729C156.513 27.4729 156.777 27.3414 156.777 26.8808C156.777 25.9598 156.448 23.8545 153.75 23.8545C151.448 23.8545 150.329 25.4993 150.329 27.7361C150.329 30.1045 151.25 31.5519 153.816 31.5519C155.46 31.5519 156.316 30.6308 156.777 29.4466L156.316 29.1835C155.856 30.0387 155.329 30.7624 154.21 30.7624C152.369 30.7624 151.974 29.0519 152.04 27.4729H156.185ZM153.685 24.3808C155.066 24.3808 155.198 25.7624 155.198 26.3545C155.198 26.6177 155.131 26.815 154.671 26.815H151.908C151.908 26.2229 152.171 24.3808 153.685 24.3808Z" fill="#003B5C"/>
<path d="M165.592 29.9729V26.2229C165.592 24.7098 164.736 23.8545 163.355 23.8545C162.236 23.8545 161.578 24.3808 160.657 24.9729L160.46 23.8545L158.223 24.2493V24.7098L158.75 24.7756C159.144 24.8414 159.21 24.9072 159.21 25.4335V29.9729C159.21 30.7624 159.144 30.7624 158.092 30.8282V31.2887H161.776V30.8282C160.789 30.7624 160.657 30.7624 160.657 29.9729V26.5519C160.657 26.1572 160.657 25.9598 160.789 25.7624C161.118 25.1704 161.71 24.7098 162.565 24.7098C163.552 24.7098 164.078 25.2361 164.078 26.5519V30.0387C164.078 30.8283 164.013 30.8282 162.96 30.894V31.3545H166.644V30.894C165.657 30.7624 165.592 30.7624 165.592 29.9729Z" fill="#003B5C"/>
<path d="M170.526 30.0388V23.9862L170.394 23.9204L168.026 24.3151V24.7756L168.619 24.8414C169.013 24.9072 169.079 24.973 169.079 25.4993V30.0388C169.079 30.7625 169.013 30.8283 167.96 30.8941V31.3545H171.644V30.8941C170.592 30.7625 170.526 30.7625 170.526 30.0388Z" fill="#003B5C"/>
<path d="M168.815 21.7493C168.815 22.2757 169.211 22.6704 169.737 22.6704C170.263 22.6704 170.658 22.2757 170.658 21.7493C170.658 21.223 170.329 20.7625 169.737 20.7625C169.211 20.7625 168.815 21.223 168.815 21.7493Z" fill="#003B5C"/>
<path d="M179.407 30.6308C179.144 30.565 178.881 30.3019 178.881 29.3808V25.894C178.881 25.0387 178.552 23.8545 176.315 23.8545C174.605 23.8545 173.355 24.7756 173.355 25.565C173.355 26.0256 173.881 26.2887 174.21 26.2887C174.539 26.2887 174.671 26.0914 174.736 25.8282C175.065 24.7098 175.592 24.3808 176.184 24.3808C176.907 24.3808 177.5 24.7756 177.5 25.894V26.4204C177.105 26.815 175.657 27.2098 174.473 27.5387C173.421 27.8677 173.092 28.6572 173.092 29.3808C173.092 30.4993 173.815 31.4861 175.263 31.4861C176.184 31.4861 176.973 30.894 177.5 30.565C177.697 31.1572 177.96 31.4861 178.486 31.4861C179.078 31.4861 179.736 31.2887 180.065 31.0256L180 30.565C179.802 30.6966 179.539 30.6966 179.407 30.6308ZM177.5 29.2493C177.5 30.4335 176.579 30.6966 176.052 30.6966C175.131 30.6966 174.671 30.0387 174.671 29.1835C174.671 28.4598 175 28.1308 175.789 27.8019C176.381 27.6045 177.171 27.2756 177.5 27.0782V29.2493Z" fill="#003B5C"/>
</g>
<defs>
<clipPath id="clip0_234_42">
<rect width="250" height="39.8936" fill="white" transform="translate(0 0.104492)"/>
</clipPath>
</defs>
</svg>
