<svg width="130" height="36" viewBox="0 0 130 36" fill="none" xmlns="http://www.w3.org/2000/svg">
<g clip-path="url(#clip0_235_63)">
<path d="M1.84961 32V2.80309H14.3626V6.97408H6.4377V14.6916H12.7352V18.8625H6.4377V27.829H14.3626V32H1.84961ZM16.9905 32V2.80309H23.9969C26.2776 2.80309 27.9878 3.41468 29.1274 4.63787C30.2671 5.86257 30.8369 7.65633 30.8369 10.0191V24.784C30.8369 27.1483 30.2671 28.9421 29.1274 30.1653C27.9878 31.3884 26.2776 32 23.9969 32H16.9905ZM21.5786 27.829H23.9148C24.6655 27.829 25.2421 27.6064 25.6448 27.1612C26.0474 26.7175 26.2488 25.995 26.2488 24.9937V9.81172C26.2488 8.81038 26.0474 8.0871 25.6448 7.64189C25.2421 7.19668 24.6655 6.97408 23.9148 6.97408H21.5786V27.829ZM40.5988 32.4149C38.3743 32.4149 36.6778 31.7827 35.5093 30.5185C34.3408 29.2528 33.7566 27.4378 33.7566 25.0735V2.80081H38.3447V25.4085C38.3447 26.4098 38.5467 27.1324 38.9509 27.576C39.3536 28.0213 39.9302 28.2439 40.6809 28.2439C41.4315 28.2439 42.0089 28.0213 42.4131 27.576C42.8157 27.1324 43.0171 26.4098 43.0171 25.4085V2.80081H47.4388V25.0735C47.4388 27.4378 46.8545 29.2528 45.6861 30.5185C44.5191 31.7827 42.8233 32.4149 40.5988 32.4149ZM53.9027 32L49.4833 2.80309H54.1124L57.1141 25.4518H57.1984L60.2025 2.80309H64.4145L59.9928 32H53.9027ZM66.6254 32V2.80309H79.1383V6.97408H71.2134V14.6916H77.511V18.8625H71.2134V27.829H79.1383V32H66.6254ZM81.764 32V2.80309H88.563C90.9258 2.80309 92.6496 3.35238 93.7345 4.45097C94.8194 5.54956 95.3619 7.23923 95.3619 9.51998V11.3115C95.3619 14.3428 94.3606 16.2619 92.3579 17.0688V17.1508C93.4701 17.4851 94.2557 18.1666 94.7146 19.1953C95.1735 20.224 95.4029 21.6007 95.4029 23.3253V28.4558C95.4029 29.29 95.4303 29.9639 95.485 30.4775C95.5412 30.9926 95.6802 31.5001 95.9021 32H91.2319C91.0648 31.5275 90.9531 31.083 90.8969 30.6667C90.8422 30.2488 90.8148 29.4974 90.8148 28.4125V23.0746C90.8148 21.7405 90.5991 20.809 90.1675 20.2802C89.7375 19.7514 88.9937 19.4871 87.9362 19.4871H86.3521V32H81.764ZM86.3521 15.3161H88.0205C88.9383 15.3161 89.6266 15.0798 90.0855 14.6072C90.5443 14.1347 90.7738 13.3422 90.7738 12.23V9.97811C90.7738 8.92054 90.5854 8.15548 90.2085 7.68292C89.8332 7.21036 89.2429 6.97408 88.4376 6.97408H86.3521V15.3161ZM104.54 32.4171C102.316 32.4171 100.633 31.785 99.4919 30.5208C98.3522 29.2551 97.7824 27.4401 97.7824 25.0757V23.4073H102.12V25.4108C102.12 27.301 102.912 28.2461 104.497 28.2461C105.277 28.2461 105.868 28.0167 106.27 27.5578C106.673 27.0989 106.874 26.3551 106.874 25.3264C106.874 24.1033 106.596 23.0259 106.04 22.0945C105.484 21.1631 104.455 20.0439 102.954 18.7372C101.064 17.0688 99.7433 15.5599 98.9927 14.2106C98.2421 12.8629 97.8668 11.3403 97.8668 9.64306C97.8668 7.33648 98.4502 5.55032 99.6172 4.28459C100.786 3.01885 102.482 2.38599 104.707 2.38599C106.902 2.38599 108.564 3.01885 109.691 4.28459C110.817 5.55032 111.38 7.36459 111.38 9.72739V10.9377H107.043V9.43565C107.043 8.43431 106.848 7.70419 106.457 7.24531C106.068 6.78642 105.498 6.55698 104.748 6.55698C103.219 6.55698 102.455 7.48843 102.455 9.35132C102.455 10.4089 102.74 11.3965 103.31 12.3143C103.879 13.2321 104.915 14.3444 106.416 15.6511C108.335 17.3195 109.656 18.8344 110.38 20.1959C111.101 21.5589 111.462 23.1581 111.462 24.9937C111.462 27.3854 110.872 29.2201 109.691 30.498C108.509 31.7774 106.792 32.4171 104.54 32.4171ZM114.09 32V2.80309H126.603V6.97408H118.678V14.6916H124.978V18.8625H118.678V27.829H126.603V32H114.09Z" fill="white"/>
</g>
<defs>
<clipPath id="clip0_235_63">
<rect width="130" height="35.3527" fill="white"/>
</clipPath>
</defs>
</svg>
