<svg width="130" height="36" viewBox="0 0 130 36" fill="none" xmlns="http://www.w3.org/2000/svg">
<g clip-path="url(#clip0_225_35)">
<path d="M1.84961 32.0003V2.80333H14.3626V6.97432H6.4377V14.6918H12.7352V18.8628H6.4377V27.8293H14.3626V32.0003H1.84961ZM16.9905 32.0003V2.80333H23.9969C26.2776 2.80333 27.9878 3.41492 29.1274 4.63811C30.2671 5.86282 30.8369 7.65657 30.8369 10.0194V24.7842C30.8369 27.1486 30.2671 28.9423 29.1274 30.1655C27.9878 31.3887 26.2776 32.0003 23.9969 32.0003H16.9905ZM21.5786 27.8293H23.9148C24.6655 27.8293 25.2421 27.6067 25.6448 27.1615C26.0474 26.7178 26.2488 25.9953 26.2488 24.9939V9.81197C26.2488 8.81062 26.0474 8.08735 25.6448 7.64214C25.2421 7.19693 24.6655 6.97432 23.9148 6.97432H21.5786V27.8293ZM40.5988 32.4151C38.3743 32.4151 36.6778 31.783 35.5093 30.5188C34.3408 29.253 33.7566 27.438 33.7566 25.0737V2.80105H38.3447V25.4087C38.3447 26.4101 38.5467 27.1326 38.9509 27.5763C39.3536 28.0215 39.9302 28.2441 40.6809 28.2441C41.4315 28.2441 42.0089 28.0215 42.4131 27.5763C42.8157 27.1326 43.0171 26.4101 43.0171 25.4087V2.80105H47.4388V25.0737C47.4388 27.438 46.8545 29.253 45.6861 30.5188C44.5191 31.783 42.8233 32.4151 40.5988 32.4151ZM53.9027 32.0003L49.4833 2.80333H54.1124L57.1141 25.452H57.1984L60.2025 2.80333H64.4145L59.9928 32.0003H53.9027ZM66.6254 32.0003V2.80333H79.1383V6.97432H71.2134V14.6918H77.511V18.8628H71.2134V27.8293H79.1383V32.0003H66.6254ZM81.764 32.0003V2.80333H88.563C90.9258 2.80333 92.6496 3.35262 93.7345 4.45121C94.8194 5.5498 95.3619 7.23947 95.3619 9.52022V11.3117C95.3619 14.3431 94.3606 16.2622 92.3579 17.069V17.1511C93.4701 17.4854 94.2557 18.1669 94.7146 19.1956C95.1735 20.2243 95.4029 21.6009 95.4029 23.3255V28.4561C95.4029 29.2903 95.4303 29.9642 95.485 30.4778C95.5412 30.9929 95.6802 31.5004 95.9021 32.0003H91.2319C91.0648 31.5277 90.9531 31.0833 90.8969 30.6669C90.8422 30.2491 90.8148 29.4977 90.8148 28.4128V23.0748C90.8148 21.7407 90.5991 20.8093 90.1675 20.2805C89.7375 19.7517 88.9937 19.4873 87.9362 19.4873H86.3521V32.0003H81.764ZM86.3521 15.3163H88.0205C88.9383 15.3163 89.6266 15.08 90.0855 14.6075C90.5443 14.1349 90.7738 13.3425 90.7738 12.2302V9.97835C90.7738 8.92079 90.5854 8.15572 90.2085 7.68316C89.8332 7.2106 89.2429 6.97432 88.4376 6.97432H86.3521V15.3163ZM104.54 32.4174C102.316 32.4174 100.633 31.7853 99.4919 30.5211C98.3522 29.2553 97.7824 27.4403 97.7824 25.076V23.4076H102.12V25.411C102.12 27.3013 102.912 28.2464 104.497 28.2464C105.277 28.2464 105.868 28.0169 106.27 27.5581C106.673 27.0992 106.874 26.3554 106.874 25.3267C106.874 24.1035 106.596 23.0262 106.04 22.0947C105.484 21.1633 104.455 20.0442 102.954 18.7374C101.064 17.069 99.7433 15.5602 98.9927 14.2109C98.2421 12.8631 97.8668 11.3406 97.8668 9.6433C97.8668 7.33672 98.4502 5.55056 99.6172 4.28483C100.786 3.0191 102.482 2.38623 104.707 2.38623C106.902 2.38623 108.564 3.0191 109.691 4.28483C110.817 5.55056 111.38 7.36483 111.38 9.72763V10.9379H107.043V9.43589C107.043 8.43455 106.848 7.70444 106.457 7.24555C106.068 6.78667 105.498 6.55722 104.748 6.55722C103.219 6.55722 102.455 7.48867 102.455 9.35156C102.455 10.4091 102.74 11.3968 103.31 12.3146C103.879 13.2323 104.915 14.3446 106.416 15.6514C108.335 17.3198 109.656 18.8347 110.38 20.1961C111.101 21.5591 111.462 23.1584 111.462 24.9939C111.462 27.3856 110.872 29.2204 109.691 30.4983C108.509 31.7777 106.792 32.4174 104.54 32.4174ZM114.09 32.0003V2.80333H126.603V6.97432H118.678V14.6918H124.978V18.8628H118.678V27.8293H126.603V32.0003H114.09Z" fill="white"/>
</g>
<defs>
<clipPath id="clip0_225_35">
<rect width="130" height="35.3527" fill="white"/>
</clipPath>
</defs>
</svg>
