<svg width="318" height="318" viewBox="0 0 318 318" fill="none" xmlns="http://www.w3.org/2000/svg">
<path d="M293.839 235.04C311.481 199.768 312.671 152.767 300.491 115.091C290.003 82.6483 266.669 57.9079 239.715 43.1718C208.443 26.0761 171.167 20.9881 137.605 31.781C128.777 34.6176 120.179 37.2188 111.86 41.8807C77.7385 60.9925 84.3211 108.088 72.3516 124.465C62.2773 138.247 43.0193 134.183 30.878 144.747C-1.8887 173.246 -1.97774 245.286 35.8325 267.801C75.9386 291.689 250.139 322.401 293.839 235.04Z" fill="#92E3A9"/>
<path opacity="0.8" d="M293.839 235.04C311.481 199.768 312.671 152.767 300.491 115.091C290.003 82.6483 266.669 57.9079 239.715 43.1718C208.443 26.0761 171.167 20.9881 137.605 31.781C128.777 34.6176 120.179 37.2188 111.86 41.8807C77.7385 60.9925 84.3211 108.088 72.3516 124.465C62.2773 138.247 43.0193 134.183 30.878 144.747C-1.8887 173.246 -1.97774 245.286 35.8325 267.801C75.9386 291.689 250.139 322.401 293.839 235.04Z" fill="white"/>
<g opacity="0.3">
<path d="M269.225 124.487C284.418 118.398 291.799 101.145 285.71 85.9513C279.62 70.7577 262.367 63.3772 247.173 69.4665C231.98 75.5558 224.599 92.809 230.689 108.003C236.778 123.196 254.031 130.577 269.225 124.487Z" stroke="black" stroke-linejoin="round"/>
<path d="M283.855 101.194C286.185 87.0285 276.59 73.6564 262.425 71.3266C248.259 68.9968 234.887 78.5914 232.557 92.7568C230.228 106.922 239.822 120.294 253.988 122.624C268.153 124.954 281.525 115.359 283.855 101.194Z" stroke="black" stroke-linejoin="round"/>
<path d="M258.197 98.7518C259.18 98.7518 259.978 97.9545 259.978 96.971C259.978 95.9875 259.18 95.1902 258.197 95.1902C257.213 95.1902 256.416 95.9875 256.416 96.971C256.416 97.9545 257.213 98.7518 258.197 98.7518Z" stroke="black" stroke-linejoin="round"/>
<path d="M258.197 98.752V116.674" stroke="black" stroke-linejoin="round"/>
<path d="M251.112 93.384L256.467 96.157" stroke="black" stroke-linejoin="round"/>
</g>
<path opacity="0.2" d="M208.283 40.8694C206.744 40.8694 205.453 41.8679 204.989 43.248H34.1084C33.6378 41.8679 32.3467 40.8694 30.8076 40.8694C28.8741 40.8694 27.3096 42.4339 27.3096 44.3674C27.3096 46.3008 28.8741 47.8654 30.8076 47.8654C32.3467 47.8654 33.6378 46.8669 34.1084 45.4867H204.983C205.453 46.8669 206.744 47.8654 208.277 47.8654C210.21 47.8654 211.775 46.3008 211.775 44.3674C211.775 42.4339 210.21 40.8694 208.277 40.8694H208.283Z" fill="black"/>
<g opacity="0.2">
<path d="M74.5262 46.1162C76.9621 105.36 79.0927 165.163 81.6431 224.19L81.3887 235.759C81.3887 235.759 70.4368 235.759 64.6746 236.337C58.9124 236.916 49.9766 236.916 43.6357 236.916C37.2948 236.916 33.835 234.608 33.835 234.608L34.2484 224.177C35.5267 165.182 36.9068 105.372 37.81 46.1226" stroke="black" stroke-linejoin="round"/>
<path d="M47.2232 214.396L47.1914 221.366" stroke="black" stroke-linejoin="round"/>
<path d="M47.8204 78.4888L47.248 208.201" stroke="black" stroke-linejoin="round"/>
<path d="M47.9666 44.7998L47.833 74.6155" stroke="black" stroke-linejoin="round"/>
<path d="M57.7872 112.941L56.4834 199.297" stroke="black" stroke-linejoin="round"/>
<path d="M58.8041 45.5757L57.8691 107.541" stroke="black" stroke-linejoin="round"/>
<path d="M66.9639 136.956L67.3264 217.111" stroke="black" stroke-linejoin="round"/>
<path d="M66.7031 80.0405L66.9321 130.38" stroke="black" stroke-linejoin="round"/>
<path d="M66.5508 46.3516L66.678 73.8458" stroke="black" stroke-linejoin="round"/>
</g>
<g opacity="0.2">
<path d="M162.93 46.1162C160.589 108.839 157.606 172.197 155.361 234.588C155.361 234.588 162.822 235.714 167.617 235.714H192.097C197.375 235.714 203.43 234.544 203.43 234.544C202.324 172.197 201.579 108.839 199.646 46.1162" stroke="black" stroke-linejoin="round"/>
<path d="M190.227 214.396L190.258 221.366" stroke="black" stroke-linejoin="round"/>
<path d="M189.636 78.4888L190.202 208.201" stroke="black" stroke-linejoin="round"/>
<path d="M189.482 44.7998L189.616 74.6155" stroke="black" stroke-linejoin="round"/>
<path d="M179.663 112.941L180.967 199.297" stroke="black" stroke-linejoin="round"/>
<path d="M178.646 45.5757L179.58 107.541" stroke="black" stroke-linejoin="round"/>
<path d="M170.486 136.956L170.123 217.111" stroke="black" stroke-linejoin="round"/>
<path d="M170.747 80.0405L170.518 130.38" stroke="black" stroke-linejoin="round"/>
<path d="M170.899 46.3516L170.771 73.8458" stroke="black" stroke-linejoin="round"/>
</g>
<g opacity="0.2">
<path d="M75.6133 62.9514H92.8107V83.0109H76.7581" stroke="black" stroke-linejoin="round"/>
<path d="M113.78 63.0022H95.8066V83.1252H113.78V63.0022Z" stroke="black" stroke-linejoin="round"/>
</g>
<g opacity="0.2">
<path d="M162.071 62.9514H144.874V83.0109H160.927" stroke="black" stroke-linejoin="round"/>
<path d="M123.906 83.1189H141.879V62.9959H123.906V83.1189Z" stroke="black" stroke-linejoin="round"/>
</g>
<path opacity="0.2" d="M78.4508 154.116H114.245V93.969H76.8799" stroke="black" stroke-linejoin="round"/>
<path opacity="0.2" d="M160.259 93.4602H123.683V154.116H157.505" stroke="black" stroke-linejoin="round"/>
<path opacity="0.2" d="M79.627 168.387H114.244V228.852H82.2536" stroke="black" stroke-linejoin="round"/>
<path opacity="0.2" d="M157.899 167.879H123.683V229.412H154.878" stroke="black" stroke-linejoin="round"/>
<path opacity="0.2" d="M82.0947 233.253H155.356" stroke="black" stroke-linejoin="round"/>
<path opacity="0.2" d="M75.4678 55.9871H162.027" stroke="black" stroke-linejoin="round"/>
<path opacity="0.2" d="M118.957 56.4004V232.426" stroke="black" stroke-linejoin="round"/>
<path opacity="0.2" d="M76.5674 89.3135H160.767" stroke="black" stroke-linejoin="round"/>
<path d="M11.0283 264.531H306.679" stroke="#263238" stroke-linecap="round" stroke-linejoin="round"/>
<path d="M221.068 206.14C221.068 199.876 216.838 187.353 211.312 182.882C205.791 178.411 191.456 174.334 191.456 174.334L172.757 172.318V172.051L171.447 172.178L170.296 172.051V172.286L148.755 174.334C148.755 174.334 132.498 178.411 126.234 182.882C119.969 187.353 114.601 197.866 114.601 204.131C114.601 210.395 114.156 239.244 114.156 239.244L132.944 241.031L135.405 234.767L138.089 264.512H200.862L203.228 234.767L205.397 241.031L223.777 241.12C223.777 241.12 221.061 212.405 221.061 206.147L221.068 206.14Z" fill="#92E3A9" stroke="#263238" stroke-linecap="round" stroke-linejoin="round"/>
<path d="M131.589 227.516C131.589 227.516 137.593 209.982 137.834 213.104C138.076 216.227 135.411 234.767 135.411 234.767L131.354 241.928L131.595 227.516H131.589Z" fill="#263238" stroke="#263238" stroke-linecap="round" stroke-linejoin="round"/>
<path d="M138.089 264.513C138.089 264.513 198 234.85 195.92 239.639C193.841 244.428 190.718 248.174 190.718 248.174L200.709 242.761L204.042 218.409L200.862 264.519H138.089V264.513Z" fill="#263238" stroke="#263238" stroke-linecap="round" stroke-linejoin="round"/>
<path d="M148.755 174.334C148.755 174.334 148.602 197.421 152.85 205.695C157.099 213.97 170.519 223.586 172.757 222.244C174.996 220.902 188.416 204.131 189.306 199.876C190.203 195.627 187.926 174.328 187.926 174.328H148.755V174.334Z" fill="white" stroke="#263238" stroke-linecap="round" stroke-linejoin="round"/>
<path d="M157.086 192.708L166.563 188.25L148.583 176.973C148.583 176.973 149.289 196.053 150.402 198.286L157.093 192.714L157.086 192.708Z" fill="#263238" stroke="#263238" stroke-linecap="round" stroke-linejoin="round"/>
<path d="M152.183 180.198C152.183 180.198 157.328 195.856 161.131 200.327" stroke="#263238" stroke-linecap="round" stroke-linejoin="round"/>
<path d="M184.39 181.088C184.39 181.088 181.929 193.834 178.354 200.544" stroke="#263238" stroke-linecap="round" stroke-linejoin="round"/>
<path d="M128.466 193.338C128.02 195.328 126.608 196.702 125.305 196.409C124.007 196.117 123.314 194.272 123.753 192.282C124.198 190.291 125.61 188.917 126.914 189.21C128.211 189.502 128.904 191.347 128.466 193.338Z" fill="white" stroke="#263238" stroke-linecap="round" stroke-linejoin="round"/>
<path d="M126.615 187.868C126.615 187.868 128.898 179.257 129.426 177.851C129.954 176.445 137.86 158.873 138.216 156.233C138.566 153.6 139.093 150.783 139.621 150.961C140.149 151.139 147.005 162.911 147.005 162.911C147.005 162.911 145.6 167.834 144.016 171.701C142.432 175.568 142.261 176.445 142.261 176.445L148.239 169.767C148.239 169.767 149.823 171.701 148.767 174.334C147.711 176.967 147.711 175.561 145.428 178.729C143.145 181.896 142.089 184.179 140.683 185.057C139.278 185.935 135.233 189.274 135.233 189.274C135.233 189.274 133.121 197.007 133.121 200.696C133.121 204.385 133.649 246.215 133.999 252.015C134.349 257.815 129.255 265.899 126.094 266.776C122.933 267.654 115.549 266.955 112.56 261.682C109.57 256.41 112.032 244.281 112.909 241.12C113.787 237.959 126.615 187.868 126.615 187.868Z" fill="white" stroke="#263238" stroke-linecap="round" stroke-linejoin="round"/>
<path d="M141.173 154.522C141.173 154.522 140.683 163.719 139.856 168.813" stroke="#263238" stroke-linecap="round" stroke-linejoin="round"/>
<path d="M144.62 156.494C144.62 156.494 144.13 165.036 142.648 168.813" stroke="#263238" stroke-linecap="round" stroke-linejoin="round"/>
<path d="M130.653 175.917C130.653 175.917 134.342 166.428 135.048 162.034C135.754 157.639 136.104 155.705 137.681 157.639C139.265 159.572 138.209 165.551 137.681 168.712C137.153 171.872 137.681 174.862 137.153 179.078C136.625 183.295 135.398 185.057 134.692 185.407" fill="white"/>
<path d="M130.653 175.917C130.653 175.917 134.342 166.428 135.048 162.034C135.754 157.639 136.104 155.705 137.681 157.639C139.265 159.572 138.209 165.551 137.681 168.712C137.153 171.872 137.681 174.862 137.153 179.078C136.625 183.295 135.398 185.057 134.692 185.407" stroke="#263238" stroke-linecap="round" stroke-linejoin="round"/>
<path d="M210.071 187.868C210.071 187.868 207.788 179.257 207.26 177.851C206.732 176.446 197.44 159.751 197.084 157.111C196.735 154.478 193.567 149.905 193.039 150.083C192.511 150.262 189.681 162.912 189.681 162.912C189.681 162.912 191.087 167.834 192.67 171.701C194.254 175.568 194.426 176.446 194.426 176.446L188.447 169.768C188.447 169.768 186.864 171.701 187.92 174.334C188.975 176.967 188.975 175.562 191.259 178.729C193.542 181.896 194.598 184.179 196.003 185.057C197.409 185.935 201.454 189.274 201.454 189.274C201.454 189.274 203.565 197.007 203.565 200.696C203.565 204.385 203.037 246.215 202.687 252.015C202.338 257.815 207.432 265.899 210.593 266.777C213.754 267.654 221.138 266.955 224.127 261.682C227.116 256.41 224.655 244.281 223.777 241.12C222.9 237.96 210.071 187.868 210.071 187.868Z" fill="white" stroke="#263238" stroke-linecap="round" stroke-linejoin="round"/>
<path d="M192.251 153.372C192.251 153.372 196.029 162.237 196.849 167.332" stroke="#263238" stroke-linecap="round" stroke-linejoin="round"/>
<path d="M191.513 156.494C191.513 156.494 192.002 165.036 193.484 168.814" stroke="#263238" stroke-linecap="round" stroke-linejoin="round"/>
<path d="M204.996 176.439C204.996 176.439 201.129 168.706 199.546 166.95C197.962 165.195 193.745 158.339 192.34 157.111C190.934 155.884 190.756 159.922 192.162 162.562C193.567 165.201 196.207 171.173 196.556 171.701C196.906 172.229 198.14 177.68 198.49 181.19C198.84 184.707 200.074 186.991 202.179 187.868C204.284 188.746 205.168 189.274 205.168 189.274" fill="white"/>
<path d="M204.996 176.439C204.996 176.439 201.129 168.706 199.546 166.95C197.962 165.195 193.745 158.339 192.34 157.111C190.934 155.884 190.756 159.922 192.162 162.562C193.567 165.201 196.207 171.173 196.556 171.701C196.906 172.229 198.14 177.68 198.49 181.19C198.84 184.707 200.074 186.991 202.179 187.868C204.284 188.746 205.168 189.274 205.168 189.274" stroke="#263238" stroke-linecap="round" stroke-linejoin="round"/>
<path d="M182.01 132.994C182.01 132.994 188.192 127.054 185.566 120.478C182.939 113.908 169.354 108.864 161.906 110.62C154.459 112.375 151.832 114.124 151.832 114.124L158.402 113.246C158.402 113.246 150.077 115.002 147.011 120.478C143.946 125.953 144.823 128.58 144.823 128.58L148.328 125.515C148.328 125.515 147.45 129.674 149.422 132.523C151.393 135.373 158.625 133.617 161.468 131.429C164.317 129.242 167.382 127.27 172.419 129.897C177.457 132.523 180.643 134.113 182.01 132.988V132.994Z" fill="#263238" stroke="#263238" stroke-linecap="round" stroke-linejoin="round"/>
<path d="M147.062 167.427C147.062 167.427 143.621 164.501 143.45 161.576C143.278 158.65 143.45 157.792 143.45 157.792C143.45 157.792 140.009 154.694 138.8 151.075C137.598 147.463 140.181 140.06 146.203 135.239C152.226 130.418 165.309 123.015 173.227 125.426C181.145 127.836 182.004 133 182.004 133C182.004 133 186.825 130.933 191.302 137.649C195.78 144.366 195.78 147.463 194.571 150.045C193.363 152.627 191.817 154.694 191.817 154.694C191.817 154.694 192.848 155.381 191.817 159C190.787 162.619 189.922 164.679 189.922 164.679L184.93 152.456L175.116 142.299L148.951 157.792L147.056 167.433L147.062 167.427Z" fill="#263238" stroke="#263238" stroke-linecap="round" stroke-linejoin="round"/>
<path d="M176.153 139.539C176.153 139.539 156.875 149.867 151.361 153.136L145.854 156.405C145.854 156.405 147.234 176.376 148.951 178.443C150.674 180.51 162.205 189.115 164.787 190.667C167.369 192.218 172.019 192.562 173.914 191.182C175.809 189.802 188.548 179.13 189.75 176.204C190.952 173.278 188.027 150.898 188.027 150.898C188.027 150.898 179.25 144.181 176.146 139.539H176.153Z" fill="white" stroke="#263238" stroke-linecap="round" stroke-linejoin="round"/>
<path d="M165.996 171.727C165.996 171.727 168.235 174.824 170.474 173.622C172.712 172.42 172.884 171.383 172.884 171.383" stroke="#263238" stroke-linecap="round" stroke-linejoin="round"/>
<path d="M170.302 179.13C170.302 179.13 170.817 177.927 173.056 176.547" stroke="#263238" stroke-linecap="round" stroke-linejoin="round"/>
<path d="M152.569 160.368C152.569 160.368 156.703 164.33 162.726 160.368" stroke="#263238" stroke-width="2" stroke-linecap="round" stroke-linejoin="round"/>
<path d="M173.398 160.368C173.398 160.368 177.532 164.33 183.555 160.368" stroke="#263238" stroke-width="2" stroke-linecap="round" stroke-linejoin="round"/>
<path d="M152.226 156.233C152.226 156.233 159.973 151.413 162.555 151.584C165.137 151.756 163.757 153.651 163.757 153.651C163.757 153.651 157.041 155.718 155.667 156.405C154.287 157.092 151.361 158.472 152.226 156.233Z" fill="#263238"/>
<path d="M184.802 156.233C184.802 156.233 177.056 151.413 174.474 151.584C171.892 151.756 173.272 153.651 173.272 153.651C173.272 153.651 179.988 155.718 181.362 156.405C182.742 157.092 185.667 158.472 184.802 156.233Z" fill="#263238"/>
<path d="M146.89 157.785L147.405 164.673C147.405 164.673 152.398 167.599 158.421 166.912C164.444 166.225 166.339 165.017 166.339 165.017L166.854 156.755L146.884 157.785H146.89Z" stroke="#263238" stroke-width="2" stroke-linecap="round" stroke-linejoin="round"/>
<path d="M190.444 157.785L189.928 164.673C189.928 164.673 184.936 167.599 178.913 166.912C172.89 166.225 170.995 165.017 170.995 165.017L170.479 156.755L190.45 157.785H190.444Z" stroke="#263238" stroke-width="2" stroke-linecap="round" stroke-linejoin="round"/>
<path d="M166.86 156.749H170.473" stroke="#263238" stroke-width="2" stroke-linecap="round" stroke-linejoin="round"/>
<path d="M167.032 159.331C167.032 159.331 168.584 157.951 170.473 159.331" stroke="#263238" stroke-width="2" stroke-linecap="round" stroke-linejoin="round"/>
<path d="M126.1 189.865C125.801 191.029 125.388 192.657 124.879 194.623L133.738 195.672C134.082 193.885 134.495 192.117 134.801 190.896L126.094 189.865H126.1Z" fill="#263238" stroke="#263238" stroke-linecap="round" stroke-linejoin="round"/>
<path d="M48.9085 270.548C49.2011 270.548 49.5 270.491 49.7862 270.37C50.9374 269.887 51.4716 268.564 50.9882 267.413L22.877 200.925L61.2406 157.435C62.0674 156.5 61.9783 155.076 61.0434 154.249C60.1085 153.422 58.6838 153.511 57.857 154.446L18.5522 199.004C17.9798 199.653 17.8272 200.575 18.1643 201.37L46.8288 269.162C47.1913 270.026 48.0308 270.542 48.9085 270.542V270.548Z" fill="white" stroke="#263238" stroke-linecap="round" stroke-linejoin="round"/>
<path d="M67.9321 190.374C67.7858 190.234 67.6459 190.101 67.4996 189.961C57.6034 180.064 55.4156 166.206 62.6151 159.006C69.8146 151.807 83.6731 153.995 93.5692 163.891C93.7092 164.031 93.8491 164.177 93.9826 164.323L67.9321 190.374Z" fill="white" stroke="#263238" stroke-linecap="round" stroke-linejoin="round"/>
<path d="M69.0527 155.795L59.3972 165.45L51.7025 157.756C50.7896 156.843 50.7941 155.363 51.7025 154.455L58.0526 148.105C58.9655 147.192 60.4451 147.196 61.3535 148.105L69.0482 155.799L69.0527 155.795Z" fill="white" stroke="#263238" stroke-linecap="round" stroke-linejoin="round"/>
<path d="M17.6875 200.639C17.6875 198.254 19.6209 196.314 22.0123 196.314C24.4037 196.314 26.3371 198.248 26.3371 200.639C26.3371 203.03 24.4037 204.964 22.0123 204.964C19.6209 204.964 17.6875 203.03 17.6875 200.639Z" fill="white" stroke="#263238" stroke-linecap="round" stroke-linejoin="round"/>
<path d="M22.076 267.126H70.6346C73.7828 267.126 76.3268 269.677 76.3268 272.819H16.3838C16.3838 269.67 18.9341 267.126 22.076 267.126Z" fill="white" stroke="#263238" stroke-linecap="round" stroke-linejoin="round"/>
<path d="M297.687 265.492C297.687 265.492 295.289 268.258 297.687 271.578H254.076L252.785 268.258L254.445 265.307L297.687 265.492Z" fill="white" stroke="#263238" stroke-linecap="round" stroke-linejoin="round"/>
<path d="M254.076 271.426V265.861H295.028V264.468H240.548C238.246 264.468 236.376 266.338 236.376 268.64C236.376 270.942 238.246 272.812 240.548 272.812H295.028V271.419H254.076V271.426Z" fill="#263238" stroke="#263238" stroke-linecap="round" stroke-linejoin="round"/>
<path d="M254.076 268.646C254.076 267.107 255.322 265.861 256.861 265.861H299.346V264.468H256.073C253.859 264.468 252.072 266.261 252.072 268.468C252.072 270.866 254.018 272.812 256.416 272.812H299.346V271.419H256.861C255.322 271.419 254.076 270.173 254.076 268.634V268.646Z" fill="#C9C9C9" stroke="#263238" stroke-linecap="round" stroke-linejoin="round"/>
<path d="M298.227 248.345C298.227 248.345 295.829 251.112 298.227 254.432H254.616L253.325 251.112L254.985 248.161L298.227 248.345Z" fill="white" stroke="#263238" stroke-linecap="round" stroke-linejoin="round"/>
<path d="M254.616 254.285V248.72H295.568V247.327H241.088C238.786 247.327 236.916 249.197 236.916 251.5C236.916 253.802 238.786 255.672 241.088 255.672H295.568V254.279H254.616V254.285Z" fill="#92E3A9" stroke="#263238" stroke-linecap="round" stroke-linejoin="round"/>
<path d="M254.616 251.5C254.616 249.961 255.862 248.714 257.401 248.714H299.886V247.321H256.613C254.399 247.321 252.612 249.115 252.612 251.322C252.612 253.719 254.558 255.666 256.956 255.666H299.886V254.273H257.401C255.862 254.273 254.616 253.026 254.616 251.487V251.5Z" fill="#92E3A9" stroke="#263238" stroke-linecap="round" stroke-linejoin="round"/>
<path d="M294.736 257.192C294.736 257.192 292.338 259.959 294.736 263.279H251.125L249.834 259.959L251.494 257.008L294.736 257.192Z" fill="white" stroke="#263238" stroke-linecap="round" stroke-linejoin="round"/>
<path d="M251.125 263.126V257.561H292.077V256.168H237.597C235.295 256.168 233.425 258.038 233.425 260.34C233.425 262.642 235.295 264.512 237.597 264.512H292.077V263.119H251.125V263.126Z" fill="#263238" stroke="#263238" stroke-linecap="round" stroke-linejoin="round"/>
<path d="M251.124 260.34C251.124 258.801 252.371 257.554 253.91 257.554H296.395V256.162H253.122C250.908 256.162 249.121 257.955 249.121 260.162C249.121 262.56 251.067 264.506 253.465 264.506H296.395V263.113H253.91C252.371 263.113 251.124 261.867 251.124 260.327V260.34Z" fill="#92E3A9" stroke="#263238" stroke-linecap="round" stroke-linejoin="round"/>
<path d="M234.843 240.344C234.843 240.344 237.24 243.111 234.843 246.431H278.453L279.744 243.111L278.084 240.16L234.843 240.344Z" fill="white" stroke="#263238" stroke-linecap="round" stroke-linejoin="round"/>
<path d="M278.46 246.278V240.713H237.508V239.32H291.988C294.29 239.32 296.16 241.19 296.16 243.492C296.16 245.795 294.29 247.665 291.988 247.665H237.508V246.272H278.46V246.278Z" fill="#C9C9C9" stroke="#263238" stroke-linecap="round" stroke-linejoin="round"/>
<path d="M278.46 243.499C278.46 241.96 277.213 240.713 275.674 240.713H233.189V239.32H276.463C278.676 239.32 280.463 241.114 280.463 243.321C280.463 245.718 278.517 247.665 276.119 247.665H233.189V246.272H275.674C277.213 246.272 278.46 245.025 278.46 243.486V243.499Z" fill="#C9C9C9" stroke="#263238" stroke-linecap="round" stroke-linejoin="round"/>
<path d="M237.526 232.293C237.526 232.293 239.924 235.059 237.526 238.379H281.137L282.428 235.059L280.768 232.108L237.526 232.293Z" fill="white" stroke="#263238" stroke-linecap="round" stroke-linejoin="round"/>
<path d="M281.143 238.233V232.668H240.191V231.275H294.671C296.973 231.275 298.843 233.145 298.843 235.447C298.843 237.749 296.973 239.619 294.671 239.619H240.191V238.226H281.143V238.233Z" fill="#92E3A9" stroke="#263238" stroke-linecap="round" stroke-linejoin="round"/>
<path d="M281.144 235.447C281.144 233.908 279.897 232.661 278.358 232.661H235.873V231.269H279.146C281.36 231.269 283.147 233.062 283.147 235.269C283.147 237.667 281.201 239.613 278.803 239.613H235.873V238.22H278.358C279.897 238.22 281.144 236.973 281.144 235.434V235.447Z" fill="#92E3A9" stroke="#263238" stroke-linecap="round" stroke-linejoin="round"/>
<path d="M231.091 223.974C231.091 223.974 233.489 226.74 231.091 230.06H274.701L275.992 226.74L274.332 223.789L231.091 223.974Z" fill="white" stroke="#263238" stroke-linecap="round" stroke-linejoin="round"/>
<path d="M274.701 229.914V224.349H233.749V222.956H288.229C290.531 222.956 292.401 224.826 292.401 227.128C292.401 229.431 290.531 231.3 288.229 231.3H233.749V229.908H274.701V229.914Z" fill="#263238" stroke="#263238" stroke-linecap="round" stroke-linejoin="round"/>
<path d="M274.701 227.128C274.701 225.589 273.455 224.343 271.915 224.343H229.431V222.95H272.704C274.917 222.95 276.705 224.743 276.705 226.95C276.705 229.348 274.758 231.294 272.361 231.294H229.431V229.901H271.915C273.455 229.901 274.701 228.655 274.701 227.116V227.128Z" fill="#C9C9C9" stroke="#263238" stroke-linecap="round" stroke-linejoin="round"/>
<path d="M238.551 215.795C238.551 215.795 240.949 218.561 238.551 221.881H282.161L283.452 218.561L281.792 215.61L238.551 215.795Z" fill="white" stroke="#263238" stroke-linecap="round" stroke-linejoin="round"/>
<path d="M282.161 221.729V216.164H241.209V214.771H295.689C297.991 214.771 299.861 216.641 299.861 218.943C299.861 221.245 297.991 223.115 295.689 223.115H241.209V221.722H282.161V221.729Z" fill="#92E3A9" stroke="#263238" stroke-linecap="round" stroke-linejoin="round"/>
<path d="M282.161 218.943C282.161 217.404 280.915 216.157 279.375 216.157H236.891V214.764H280.164C282.377 214.764 284.164 216.558 284.164 218.765C284.164 221.163 282.218 223.109 279.821 223.109H236.891V221.716H279.375C280.915 221.716 282.161 220.469 282.161 218.93V218.943Z" fill="#92E3A9" stroke="#263238" stroke-linecap="round" stroke-linejoin="round"/>
<path d="M232.108 207.476C232.108 207.476 234.506 210.243 232.108 213.562H275.719L277.01 210.243L275.35 207.292L232.108 207.476Z" fill="white" stroke="#263238" stroke-linecap="round" stroke-linejoin="round"/>
<path d="M275.719 213.41V207.845H234.767V206.452H289.246C291.549 206.452 293.419 208.322 293.419 210.624C293.419 212.926 291.549 214.796 289.246 214.796H234.767V213.403H275.719V213.41Z" fill="#C9C9C9" stroke="#263238" stroke-linecap="round" stroke-linejoin="round"/>
<path d="M275.719 210.624C275.719 209.085 274.472 207.838 272.933 207.838H230.448V206.446H273.722C275.935 206.446 277.722 208.239 277.722 210.446C277.722 212.844 275.776 214.79 273.378 214.79H230.448V213.397H272.933C274.472 213.397 275.719 212.15 275.719 210.611V210.624Z" fill="#C9C9C9" stroke="#263238" stroke-linecap="round" stroke-linejoin="round"/>
<path d="M211.374 269.537C199.545 262.687 165.379 259.558 165.379 259.558C165.379 259.558 131.213 262.687 119.383 269.537C119.383 269.537 117.736 270.306 118.302 270.732C118.868 271.159 118.582 271.159 120.28 270.592C121.978 270.026 142.616 264.232 146.718 264.086C150.821 263.94 157.747 269.034 158.879 270.026C160.011 271.019 158.739 272.004 160.011 272.57C161.283 273.136 165.385 272.57 165.385 272.57C165.385 272.57 169.487 273.136 170.759 272.57C172.031 272.004 170.759 271.012 171.891 270.026C173.023 269.034 179.949 263.946 184.052 264.086C188.154 264.226 208.792 270.026 210.49 270.592C212.188 271.159 211.902 271.159 212.468 270.732C213.034 270.306 211.387 269.537 211.387 269.537H211.374Z" fill="#263238" stroke="#263238" stroke-linecap="round" stroke-linejoin="round"/>
<path d="M160.456 269.886H170.46L165.525 263.094L160.456 269.886Z" fill="#6E6E6E" stroke="#263238" stroke-linecap="round" stroke-linejoin="round"/>
<path d="M165.366 256.55C165.366 256.55 159.928 250.056 151.329 250.584C142.731 251.112 129.572 256.728 125.183 258.833C120.795 260.938 116.935 261.638 116.935 261.638L119.39 269.537C119.39 269.537 136.409 264.099 144.836 263.043C153.257 261.987 160.456 269.887 160.456 269.887L165.372 262.515V256.55H165.366Z" fill="white" stroke="#263238" stroke-linecap="round" stroke-linejoin="round"/>
<path d="M161.862 267.781C161.862 267.781 157.302 261.466 152.207 260.06C147.119 258.655 144.486 259.532 144.486 259.532" stroke="#263238" stroke-linecap="round" stroke-linejoin="round"/>
<path d="M150.102 257.256C150.102 257.256 154.49 257.783 158.35 260.238" stroke="#263238" stroke-linecap="round" stroke-linejoin="round"/>
<path d="M160.806 261.638L163.789 264.799" stroke="#263238" stroke-linecap="round" stroke-linejoin="round"/>
<path d="M155.718 255.5C155.718 255.5 162.211 257.256 165.372 262.522" stroke="#263238" stroke-linecap="round" stroke-linejoin="round"/>
<path d="M151.508 252.867C151.508 252.867 155.896 252.168 159.051 254.623" stroke="#263238" stroke-linecap="round" stroke-linejoin="round"/>
<path d="M118.512 264.799L126.761 261.994" stroke="#263238" stroke-linecap="round" stroke-linejoin="round"/>
<path d="M123.078 265.148L132.027 262.344" stroke="#263238" stroke-linecap="round" stroke-linejoin="round"/>
<path d="M165.544 256.55C165.544 256.55 170.982 250.056 179.581 250.584C188.18 251.112 201.339 256.728 205.727 258.833C210.115 260.938 213.976 261.638 213.976 261.638L211.521 269.537C211.521 269.537 194.502 264.099 186.075 263.043C177.654 261.987 170.454 269.887 170.454 269.887L165.538 262.515V256.55H165.544Z" fill="white" stroke="#263238" stroke-linecap="round" stroke-linejoin="round"/>
<path d="M169.055 267.782C169.055 267.782 173.615 261.466 178.709 260.061C183.797 258.655 186.43 259.533 186.43 259.533" stroke="#263238" stroke-linecap="round" stroke-linejoin="round"/>
<path d="M180.808 257.256C180.808 257.256 176.42 257.783 172.56 260.238" stroke="#263238" stroke-linecap="round" stroke-linejoin="round"/>
<path d="M170.105 261.638L167.122 264.799" stroke="#263238" stroke-linecap="round" stroke-linejoin="round"/>
<path d="M175.199 255.5C175.199 255.5 168.706 257.256 165.545 262.522" stroke="#263238" stroke-linecap="round" stroke-linejoin="round"/>
<path d="M179.409 252.867C179.409 252.867 175.021 252.168 171.866 254.623" stroke="#263238" stroke-linecap="round" stroke-linejoin="round"/>
<path d="M212.398 264.799L204.149 261.994" stroke="#263238" stroke-linecap="round" stroke-linejoin="round"/>
<path d="M207.839 265.149L198.884 262.344" stroke="#263238" stroke-linecap="round" stroke-linejoin="round"/>
<path d="M108.399 272.819H31.3225L21.6172 217.646H98.694L108.399 272.819Z" fill="#C9C9C9" stroke="#263238" stroke-linecap="round" stroke-linejoin="round"/>
<path d="M108.399 272.819H31.3225L21.6172 217.646H98.694L108.399 272.819Z" fill="#C9C9C9" stroke="#263238" stroke-linecap="round" stroke-linejoin="round"/>
<path d="M105.945 272.819H28.8679L19.1689 217.646H96.2458L105.945 272.819Z" fill="#C9C9C9" stroke="#263238" stroke-linecap="round" stroke-linejoin="round"/>
<path d="M30.8652 270.211L31.3232 272.819H108.4L107.942 270.211H30.8652Z" fill="#263238" stroke="#263238" stroke-linecap="round" stroke-linejoin="round"/>
<path d="M149.886 270.522H103.726V272.818H149.886V270.522Z" fill="#C9C9C9" stroke="#263238" stroke-linecap="round" stroke-linejoin="round"/>
</svg>
